<?xml version="1.0" encoding="iso-8859-1"?>
<!-- Generator: Adobe Illustrator 19.0.0, SVG Export Plug-In . SVG Version: 6.00 Build 0)  -->
<svg version="1.1" id="Capa_1" xmlns="http://www.w3.org/2000/svg" xmlns:xlink="http://www.w3.org/1999/xlink" x="0px" y="0px"
	 viewBox="0 0 512 512" style="enable-background:new 0 0 512 512;" xml:space="preserve">
<path style="fill:#FD3C65;" d="M462,176c22.09,0,40,17.91,40,40c0,14.8-8.04,27.73-20,34.65c-5.89,3.4-12.72,5.35-20,5.35
	s-14.11-1.95-20-5.35c-11.96-6.92-20-19.85-20-34.65C422,193.91,439.91,176,462,176z"/>
<path style="fill:#F0F0F0;" d="M442,250.65V296v83h-72v63h72c22.09,0,40-17.91,40-40V296v-45.35H442z"/>
<g>
	<path style="fill:#FEC761;" d="M10,379v103c0,11.05,8.95,20,20,20h320c11.05,0,20-8.95,20-20v-40v-63
		C354.278,379,19.901,379,10,379z"/>
	<path style="fill:#FEC761;" d="M370,190v43c-15.722,0-350.099,0-360,0v-43C10,90.59,90.59,10,190,10S370,90.59,370,190z"/>
</g>
<path style="fill:#8CD9F4;" d="M330,190H150H50c0-77.19,62.8-140,140-140S330,112.81,330,190z"/>
<path style="fill:#FFFFFF;" d="M290,422v80H90v-80H290z"/>
<path style="fill:#FD3C65;" d="M10,233v146c9.91,0,344.303,0,360,0V233C354.278,233,19.901,233,10,233z"/>
<path d="M130,472c5.52,0,10-4.48,10-10s-4.48-10-10-10c-5.52,0-10,4.48-10,10S124.48,472,130,472z"/>
<path d="M50,286h26.126l-15.613,46.838c-1.747,5.239,1.085,10.902,6.325,12.649c1.049,0.35,2.115,0.516,3.164,0.516
	c4.187,0,8.089-2.65,9.485-6.841l20-60c1.017-3.049,0.505-6.401-1.375-9.009C96.233,267.545,93.214,266,90,266H50
	c-5.523,0-10,4.478-10,10S44.477,286,50,286z"/>
<path d="M170,286h26.126l-15.613,46.838c-1.747,5.239,1.085,10.902,6.325,12.649c1.049,0.35,2.115,0.516,3.164,0.516
	c4.187,0,8.089-2.65,9.485-6.841l20-60c1.017-3.049,0.505-6.401-1.375-9.009C216.233,267.545,213.214,266,210,266h-40
	c-5.523,0-10,4.478-10,10S164.477,286,170,286z"/>
<path d="M338.112,270.153C336.233,267.545,333.214,266,330,266h-40c-5.523,0-10,4.478-10,10s4.477,10,10,10h26.126l-15.613,46.838
	c-1.747,5.239,1.085,10.902,6.325,12.649c1.049,0.35,2.115,0.516,3.164,0.516c4.187,0,8.089-2.65,9.485-6.841l20-60
	C340.503,276.113,339.992,272.761,338.112,270.153z"/>
<path d="M170,472h80c5.523,0,10-4.478,10-10s-4.477-10-10-10h-80c-5.523,0-10,4.478-10,10S164.477,472,170,472z"/>
<path d="M512,216c0-27.57-22.43-50-50-50s-50,22.43-50,50c0,15.78,7.543,30.604,20,39.98V369h-52V233v-43
	C380,85.233,294.766,0,190,0S0,85.233,0,190v43v249c0,16.542,13.458,30,30,30c1.684,0,309.641,0,320,0c16.542,0,30-13.458,30-30v-30
	h62c27.57,0,50-22.43,50-50V255.98C504.457,246.604,512,231.78,512,216z M472,286h-20v-21.017c3.28,0.669,6.63,1.017,10,1.017
	s6.72-0.348,10-1.017V286z M240,369H140V243h100V369z M120,369H20V243h100V369z M260,243h100v126H260V243z M20,190
	C20,96.262,96.262,20,190,20s170,76.262,170,170v33H20V190z M280,492H100v-60h180V492z M360,482c0,5.514-4.486,10-10,10h-50v-70
	c0-5.522-4.477-10-10-10H90c-5.523,0-10,4.478-10,10v70H30c-5.514,0-10-4.486-10-10v-93h110h120h110v53V482z M380,389h52v43h-52V389
	z M452,430.28V379v-73h20v96C472,415.036,463.639,426.152,452,430.28z M477.001,241.989C472.455,244.613,467.268,246,462,246
	s-10.455-1.387-15.001-4.011C437.747,236.632,432,226.674,432,216c0-16.542,13.458-30,30-30s30,13.458,30,30
	C492,226.678,486.249,236.639,477.001,241.989z"/>
<path d="M330,200c5.523,0,10-4.478,10-10c0-82.71-67.29-150-150-150S40,107.29,40,190c0,5.522,4.477,10,10,10h100H330z M190,60
	c68.318,0,124.496,52.973,129.619,120H150H60.381C65.504,112.972,121.682,60,190,60z"/>
<path d="M190,140c5.523,0,10-4.478,10-10V90c0-5.522-4.477-10-10-10s-10,4.478-10,10v40C180,135.522,184.477,140,190,140z"/>
<path d="M140.499,154.642c1.953,1.952,4.512,2.929,7.071,2.929s5.119-0.977,7.071-2.929c3.905-3.905,3.906-10.237,0-14.143
	l-28.28-28.28c-3.905-3.903-10.237-3.904-14.142,0c-3.905,3.905-3.906,10.237,0,14.143L140.499,154.642z"/>
<path d="M232.43,157.57c2.559,0,5.119-0.977,7.071-2.929l28.28-28.28c3.905-3.905,3.905-10.237,0-14.143
	c-3.905-3.904-10.237-3.904-14.142,0l-28.28,28.28c-3.905,3.905-3.905,10.237,0,14.143
	C227.312,156.594,229.871,157.57,232.43,157.57z"/>
<g>
</g>
<g>
</g>
<g>
</g>
<g>
</g>
<g>
</g>
<g>
</g>
<g>
</g>
<g>
</g>
<g>
</g>
<g>
</g>
<g>
</g>
<g>
</g>
<g>
</g>
<g>
</g>
<g>
</g>
</svg>
